<?xml version="1.0" standalone="no"?>
<!DOCTYPE svg PUBLIC "-//W3C//DTD SVG 20010904//EN"
 "http://www.w3.org/TR/2001/REC-SVG-20010904/DTD/svg10.dtd">
<svg version="1.0" xmlns="http://www.w3.org/2000/svg"
 width="700.000000pt" height="700.000000pt" viewBox="0 0 700.000000 700.000000"
 preserveAspectRatio="xMidYMid meet">
<metadata>
Created by potrace 1.14, written by Peter Selinger 2001-2017
</metadata>
<g transform="translate(0.000000,700.000000) scale(0.100000,-0.100000)"
fill="#000000" stroke="none">
<path d="M1839 6996 c-2 -2 -31 -7 -64 -10 -515 -55 -997 -318 -1324 -721 -68
-83 -151 -199 -151 -210 0 -5 -6 -16 -14 -24 -55 -64 -206 -425 -230 -552 -2
-13 -11 -62 -20 -108 -9 -46 -19 -113 -24 -150 -10 -90 -9 -3379 1 -3461 5
-36 11 -73 13 -83 3 -10 7 -32 9 -49 10 -75 88 -343 106 -363 5 -5 9 -15 9
-22 0 -26 119 -254 180 -345 163 -244 370 -445 615 -598 82 -51 278 -150 298
-150 7 0 17 -4 22 -9 21 -19 267 -90 369 -107 21 -3 48 -8 60 -10 76 -16 344
-19 1821 -19 1447 0 1779 4 1806 20 3 3 26 7 50 10 82 10 307 77 409 122 542
237 935 664 1116 1211 24 73 46 147 49 165 3 18 10 48 14 67 35 142 36 175 36
1885 0 924 -3 1708 -8 1743 -62 511 -305 965 -692 1297 -200 171 -502 335
-720 392 -5 1 -44 11 -87 23 -42 11 -134 29 -205 39 -122 19 -203 19 -1784 20
-911 0 -1658 -1 -1660 -3z"/>
</g>
</svg>
